<svg width="116" height="41" viewBox="0 0 116 41" fill="none" xmlns="http://www.w3.org/2000/svg">
<path d="M8.14 15.3H9.5V19H3.36C2.24 19 1.56 18.56 1.32 17.68C1.24 17.4267 1.2 17.1533 1.2 16.86V6.16C1.2 5.18667 1.54 4.53333 2.22 4.2C2.47333 4.06667 2.78667 4 3.16 4H9.5V7.7H8.14V5.36H2.84V17.64H8.14V15.3ZM21.9078 5.36V17.64H23.1678V19H19.0478V17.64H20.2678V11.92H14.7078V17.64H15.9278V19H11.8078V17.64H13.0678V5.36H11.8078V4H15.9278V5.36H14.7078V10.58H20.2678V5.36H19.0478V4H23.1678V5.36H21.9078ZM32.6527 12.4L30.8727 5.36L29.0927 12.4H32.6527ZM36.7927 17.64V19H32.8927V17.64H33.9727L32.9727 13.66H28.7727L27.7727 17.64H28.8727V19H24.9727V17.64H26.2327L29.7127 4H32.0727L35.4927 17.64H36.7927ZM38.5125 17.64H39.7725V5.36H37.2525V7.72H35.8125V4H45.3925V7.72H43.9325V5.36H41.4125V17.64H42.7125V19H38.5125V17.64ZM53.4916 15.3H54.8516V19H48.7116C47.5916 19 46.9116 18.56 46.6716 17.68C46.5916 17.4267 46.5516 17.1533 46.5516 16.86V6.16C46.5516 5.18667 46.8916 4.53333 47.5716 4.2C47.8249 4.06667 48.1382 4 48.5116 4H54.8516V7.7H53.4916V5.36H48.1916V17.64H53.4916V15.3ZM67.2594 5.36V17.64H68.5194V19H64.3994V17.64H65.6194V11.92H60.0594V17.64H61.2794V19H57.1594V17.64H58.4194V5.36H57.1594V4H61.2794V5.36H60.0594V10.58H65.6194V5.36H64.3994V4H68.5194V5.36H67.2594ZM86.0442 4V5.36H85.0842L82.9442 19H80.3442L78.1842 5.38L76.0242 19H73.4242L71.2842 5.36H70.3242V4H73.6242V5.36H72.8242L74.7242 17.64L76.8242 4H79.5442L81.6442 17.64L83.5442 5.36H82.7442V4H86.0442Z" fill="white"/>
<path d="M2.24 36.048H3.122V27.452H1.358V29.104H0.35V26.5H7.056V29.104H6.034V27.452H4.27V36.048H5.18V37H2.24V36.048ZM13.2762 30.098V33.038H12.3242V32.044H10.3502V36.048H13.9342V34.41H14.8862V37H8.32016V36.048H9.20216V27.452H8.32016V26.5H14.8862V29.09H13.9342V27.452H10.3502V31.092H12.3242V30.098H13.2762ZM20.573 34.41H21.525V37H17.227C16.443 37 15.967 36.692 15.799 36.076C15.743 35.8987 15.715 35.7073 15.715 35.502V28.012C15.715 27.3307 15.953 26.8733 16.429 26.64C16.6063 26.5467 16.8257 26.5 17.087 26.5H21.525V29.09H20.573V27.452H16.863V36.048H20.573V34.41ZM30.2105 27.452V36.048H31.0925V37H28.2085V36.048H29.0625V32.044H25.1705V36.048H26.0245V37H23.1405V36.048H24.0225V27.452H23.1405V26.5H26.0245V27.452H25.1705V31.106H29.0625V27.452H28.2085V26.5H31.0925V27.452H30.2105ZM41.8144 32.044H39.8404V36.048H40.7504V37H37.8104V36.048H38.6924V27.452H37.8104V26.5H44.3764V29.09H43.4244V27.452H39.8404V31.092H41.8144V30.098H42.7664V33.038H41.8144V32.044ZM49.4619 26.5C50.0312 26.5 50.4419 26.6587 50.6939 26.976C50.9552 27.284 51.0859 27.746 51.0859 28.362V35.096C51.0859 35.768 50.9739 36.2533 50.7499 36.552C50.5259 36.8507 50.1199 37 49.5319 37H46.8439C45.9479 37 45.4206 36.664 45.2619 35.992C45.2059 35.7867 45.1779 35.558 45.1779 35.306V28.362C45.1779 27.7367 45.2806 27.284 45.4859 27.004C45.7192 26.668 46.1346 26.5 46.7319 26.5H49.4619ZM46.2979 36.048H49.9659V27.452H46.2979V36.048ZM60.7598 36.048V37H57.9878V36.048H58.7438L56.3498 32.198L54.8658 33.108V36.048H55.7758V37H52.8358V36.048H53.7178V27.452H52.8358V26.5H57.8338C58.4498 26.5 58.8651 26.6213 59.0798 26.864C59.2944 27.0973 59.4018 27.5593 59.4018 28.25V29.118C59.4018 29.4727 59.3691 29.7527 59.3038 29.958C59.2384 30.1633 59.1218 30.35 58.9538 30.518C58.7858 30.6767 58.5618 30.84 58.2818 31.008C58.0018 31.176 57.6471 31.3907 57.2178 31.652L59.9758 36.048H60.7598ZM54.8658 31.988L58.3798 29.818V27.452H54.8658V31.988ZM73.8511 27.452V36.048H74.7331V37H71.8491V36.048H72.7031V32.044H68.8111V36.048H69.6651V37H66.7811V36.048H67.6631V27.452H66.7811V26.5H69.6651V27.452H68.8111V31.106H72.7031V27.452H71.8491V26.5H74.7331V27.452H73.8511ZM81.5125 30.098V33.038H80.5605V32.044H78.5865V36.048H82.1705V34.41H83.1225V37H76.5565V36.048H77.4385V27.452H76.5565V26.5H83.1225V29.09H82.1705V27.452H78.5865V31.092H80.5605V30.098H81.5125ZM89.5483 32.38L88.3023 27.452L87.0563 32.38H89.5483ZM92.4463 36.048V37H89.7163V36.048H90.4723L89.7723 33.262H86.8323L86.1323 36.048H86.9023V37H84.1723V36.048H85.0543L87.4903 26.5H89.1423L91.5363 36.048H92.4463ZM93.701 36.048H94.583V27.452H93.701V26.5H96.641V27.452H95.731V36.048H98.671V34.41H99.623V37H93.701V36.048ZM100.951 36.048H101.833V27.452H100.069V29.104H99.0609V26.5H105.767V29.104H104.745V27.452H102.981V36.048H103.891V37H100.951V36.048ZM114.101 27.452V36.048H114.983V37H112.099V36.048H112.953V32.044H109.061V36.048H109.915V37H107.031V36.048H107.913V27.452H107.031V26.5H109.915V27.452H109.061V31.106H112.953V27.452H112.099V26.5H114.983V27.452H114.101Z" fill="white"/>
</svg>
