<svg width="317" height="636" viewBox="0 0 317 636" fill="none" xmlns="http://www.w3.org/2000/svg">
<path fill-rule="evenodd" clip-rule="evenodd" d="M314.579 145.182H312.888V220.388H314.579V219.936H314.746H315.38H315.636C315.725 219.936 315.903 219.664 315.903 219.574V145.996C315.903 145.815 315.725 145.544 315.636 145.544H315.38H314.746H314.579V145.182Z" fill="#424B5A"/>
<path fill-rule="evenodd" clip-rule="evenodd" d="M1.83014 235.698H3.52104V187.913H1.83014V188.532H1.02928C0.940286 188.532 0.673302 188.713 0.762296 188.894V234.959C0.762296 235.14 0.940286 235.411 1.02928 235.411H1.83014V235.698Z" fill="#424B5A"/>
<path fill-rule="evenodd" clip-rule="evenodd" d="M1.83018 174.298H3.52108V126.513H1.83018V126.991H1.28543H1.02931C0.940318 126.991 0.762329 127.172 0.762329 127.353V173.418C0.762329 173.599 0.940318 173.871 1.02931 173.871H1.28543H1.83018V174.298Z" fill="#424B5A"/>
<path fill-rule="evenodd" clip-rule="evenodd" d="M2.23285 107.17H3.92375V82.1011H2.23285V82.7362H1.74124H1.48512C1.39613 82.7362 1.21814 82.9172 1.21814 83.0982V106.447C1.21814 106.628 1.39613 106.9 1.48512 106.9H1.74124H2.23285V107.17Z" fill="#424B5A"/>
<rect x="3.29089" width="310.162" height="636" rx="42.486" fill="#010303"/>
<path fill-rule="evenodd" clip-rule="evenodd" d="M276.11 0H40.6337C20.0098 0 3.29089 16.482 3.29089 36.8135V599.186C3.29089 619.518 20.0098 636 40.6337 636H276.11C296.734 636 313.453 619.518 313.453 599.186V36.8135C313.453 16.482 296.734 0 276.11 0ZM5.92772 36.8135C5.92772 17.9176 21.4661 2.59946 40.6337 2.59946H276.11C295.278 2.59946 310.816 17.9176 310.816 36.8135V599.187C310.816 618.082 295.278 633.401 276.11 633.401H40.6337C21.4661 633.401 5.92772 618.082 5.92772 599.187V36.8135Z" fill="#424B5A"/>
<path d="M277.826 10.8438C264.832 10.8438 243.238 10.8438 241.957 10.8438C238.846 10.8438 236.833 13.1149 236.101 17.2031C233.631 31.7387 225.579 32.7381 223.2 32.7381C221.187 32.7381 95.648 32.7381 93.5435 32.7381C91.1645 32.7381 83.021 31.6479 80.6419 17.2031C80.0014 13.1149 77.9884 10.8438 74.7859 10.8438C73.4134 10.8438 51.9108 10.8438 38.9177 10.8438C25.9246 10.8438 14.3041 24.4709 14.3041 37.4621C14.3041 50.4534 14.3041 584.911 14.3041 600.355C14.3041 616.435 30.7742 625.156 38.6432 625.156C42.9437 625.156 273.799 625.156 278.1 625.156C285.969 625.156 302.439 616.435 302.439 600.355C302.439 584.911 302.439 44.8208 302.439 37.4621C302.531 24.4709 290.819 10.8438 277.826 10.8438Z" fill="white"/>
<path fill-rule="evenodd" clip-rule="evenodd" d="M303.318 37.4622C303.415 23.6929 291.035 9.97729 277.826 9.97729H241.957C238.388 9.97729 236.042 12.5509 235.236 17.0525C234.164 23.3579 231.988 27.4398 229.067 29.745C227.107 31.292 225.068 31.8716 223.2 31.8716H93.5436C91.6969 31.8716 89.6164 31.2707 87.6424 29.7112C84.7071 27.3924 82.5397 23.3189 81.5096 17.0643C80.804 12.5604 78.4488 9.97729 74.786 9.97729H38.9178C25.7385 9.97729 13.4252 23.6538 13.4252 37.4622V600.355C13.4252 607.968 16.9851 614.543 22.9601 619.451C27.8839 623.496 34.1502 626.023 38.6433 626.023H278.1C282.593 626.023 288.859 623.496 293.783 619.451C299.758 614.543 303.318 607.968 303.318 600.355V37.4622ZM241.957 11.7103H277.826C290.014 11.7103 301.651 24.6027 301.56 37.4562V39.709V600.355C301.56 607.417 298.255 613.522 292.658 618.12C288.033 621.919 282.154 624.29 278.1 624.29H38.6432C34.5894 624.29 28.7104 621.919 24.0854 618.12C18.4886 613.522 15.1831 607.417 15.1831 600.355V37.4622C15.1831 24.5679 26.7592 11.7103 38.9177 11.7103H74.7859C77.4704 11.7103 79.187 13.593 79.7733 17.3354C80.8703 23.9963 83.2439 28.4572 86.5431 31.0636C88.8579 32.8922 91.3241 33.6046 93.5436 33.6046H223.2C225.439 33.6046 227.862 32.9156 230.165 31.0979C233.45 28.5062 235.831 24.0401 236.968 17.3463C237.639 13.6002 239.362 11.7103 241.957 11.7103Z" fill="#424B5A"/>
<path fill-rule="evenodd" clip-rule="evenodd" d="M182.546 23.3951C185.528 23.3951 187.945 21.0675 187.945 18.1962C187.945 15.3249 185.528 12.9973 182.546 12.9973C179.565 12.9973 177.148 15.3249 177.148 18.1962C177.148 21.0675 179.565 23.3951 182.546 23.3951Z" fill="#424B5A"/>
<rect x="129.055" y="15.8331" width="38.7687" height="4.72628" rx="2.36314" fill="#424B5A"/>
</svg>
