<svg width="252" height="60" viewBox="0 0 252 60" fill="none" xmlns="http://www.w3.org/2000/svg">
<path d="M98.21 27.45H100.25V33H91.04C89.36 33 88.34 32.34 87.98 31.02C87.86 30.64 87.8 30.23 87.8 29.79V13.74C87.8 12.28 88.31 11.3 89.33 10.8C89.71 10.6 90.18 10.5 90.74 10.5H100.25V16.05H98.21V12.54H90.26V30.96H98.21V27.45ZM118.862 12.54V30.96H120.752V33H114.572V30.96H116.402V22.38H108.062V30.96H109.892V33H103.712V30.96H105.602V12.54H103.712V10.5H109.892V12.54H108.062V20.37H116.402V12.54H114.572V10.5H120.752V12.54H118.862ZM134.979 23.1L132.309 12.54L129.639 23.1H134.979ZM141.189 30.96V33H135.339V30.96H136.959L135.459 24.99H129.159L127.659 30.96H129.309V33H123.459V30.96H125.349L130.569 10.5H134.109L139.239 30.96H141.189ZM143.769 30.96H145.659V12.54H141.879V16.08H139.719V10.5H154.089V16.08H151.899V12.54H148.119V30.96H150.069V33H143.769V30.96ZM166.237 27.45H168.277V33H159.067C157.387 33 156.367 32.34 156.007 31.02C155.887 30.64 155.827 30.23 155.827 29.79V13.74C155.827 12.28 156.337 11.3 157.357 10.8C157.737 10.6 158.207 10.5 158.767 10.5H168.277V16.05H166.237V12.54H158.287V30.96H166.237V27.45ZM186.889 12.54V30.96H188.779V33H182.599V30.96H184.429V22.38H176.089V30.96H177.919V33H171.739V30.96H173.629V12.54H171.739V10.5H177.919V12.54H176.089V20.37H184.429V12.54H182.599V10.5H188.779V12.54H186.889ZM215.066 10.5V12.54H213.626L210.416 33H206.516L203.276 12.57L200.036 33H196.136L192.926 12.54H191.486V10.5H196.436V12.54H195.236L198.086 30.96L201.236 10.5H205.316L208.466 30.96L211.316 12.54H210.116V10.5H215.066Z" fill="#0B5752"/>
<path d="M89.2 53.64H90.46V41.36H87.94V43.72H86.5V40H96.08V43.72H94.62V41.36H92.1V53.64H93.4V55H89.2V53.64ZM104.966 45.14V49.34H103.606V47.92H100.786V53.64H105.906V51.3H107.266V55H97.8859V53.64H99.1459V41.36H97.8859V40H107.266V43.7H105.906V41.36H100.786V46.56H103.606V45.14H104.966ZM115.39 51.3H116.75V55H110.61C109.49 55 108.81 54.56 108.57 53.68C108.49 53.4267 108.45 53.1533 108.45 52.86V42.16C108.45 41.1867 108.79 40.5333 109.47 40.2C109.723 40.0667 110.037 40 110.41 40H116.75V43.7H115.39V41.36H110.09V53.64H115.39V51.3ZM129.158 41.36V53.64H130.418V55H126.298V53.64H127.518V47.92H121.958V53.64H123.178V55H119.058V53.64H120.318V41.36H119.058V40H123.178V41.36H121.958V46.58H127.518V41.36H126.298V40H130.418V41.36H129.158ZM145.735 47.92H142.915V53.64H144.215V55H140.015V53.64H141.275V41.36H140.015V40H149.395V43.7H148.035V41.36H142.915V46.56H145.735V45.14H147.095V49.34H145.735V47.92ZM156.66 40C157.473 40 158.06 40.2267 158.42 40.68C158.793 41.12 158.98 41.78 158.98 42.66V52.28C158.98 53.24 158.82 53.9333 158.5 54.36C158.18 54.7867 157.6 55 156.76 55H152.92C151.64 55 150.887 54.52 150.66 53.56C150.58 53.2667 150.54 52.94 150.54 52.58V42.66C150.54 41.7667 150.687 41.12 150.98 40.72C151.313 40.24 151.907 40 152.76 40H156.66ZM152.14 53.64H157.38V41.36H152.14V53.64ZM172.8 53.64V55H168.84V53.64H169.92L166.5 48.14L164.38 49.44V53.64H165.68V55H161.48V53.64H162.74V41.36H161.48V40H168.62C169.5 40 170.093 40.1733 170.4 40.52C170.706 40.8533 170.86 41.5133 170.86 42.5V43.74C170.86 44.2467 170.813 44.6467 170.72 44.94C170.626 45.2333 170.46 45.5 170.22 45.74C169.98 45.9667 169.66 46.2 169.26 46.44C168.86 46.68 168.353 46.9867 167.74 47.36L171.68 53.64H172.8ZM164.38 47.84L169.4 44.74V41.36H164.38V47.84ZM191.502 41.36V53.64H192.762V55H188.642V53.64H189.862V47.92H184.302V53.64H185.522V55H181.402V53.64H182.662V41.36H181.402V40H185.522V41.36H184.302V46.58H189.862V41.36H188.642V40H192.762V41.36H191.502ZM202.446 45.14V49.34H201.086V47.92H198.266V53.64H203.386V51.3H204.746V55H195.366V53.64H196.626V41.36H195.366V40H204.746V43.7H203.386V41.36H198.266V46.56H201.086V45.14H202.446ZM213.926 48.4L212.146 41.36L210.366 48.4H213.926ZM218.066 53.64V55H214.166V53.64H215.246L214.246 49.66H210.046L209.046 53.64H210.146V55H206.246V53.64H207.506L210.986 40H213.346L216.766 53.64H218.066ZM219.859 53.64H221.119V41.36H219.859V40H224.059V41.36H222.759V53.64H226.959V51.3H228.319V55H219.859V53.64ZM230.216 53.64H231.476V41.36H228.956V43.72H227.516V40H237.096V43.72H235.636V41.36H233.116V53.64H234.416V55H230.216V53.64ZM249.002 41.36V53.64H250.262V55H246.142V53.64H247.362V47.92H241.802V53.64H243.022V55H238.902V53.64H240.162V41.36H238.902V40H243.022V41.36H241.802V46.58H247.362V41.36H246.142V40H250.262V41.36H249.002Z" fill="#0B5752"/>
<rect x="18.1562" y="1.5" width="43.125" height="10.0952" stroke="#045853" stroke-width="3"/>
<rect x="1.5" y="11.9761" width="79" height="41.5238" fill="url(#paint0_linear_102_2373)" stroke="#0B5752" stroke-width="3"/>
<rect x="37.7969" y="18.3333" width="5.125" height="27.5" fill="white"/>
<rect x="26.9062" y="34.7024" width="5.2381" height="26.9062" transform="rotate(-90 26.9062 34.7024)" fill="white"/>
<defs>
<linearGradient id="paint0_linear_102_2373" x1="41" y1="10.4761" x2="41" y2="54.9999" gradientUnits="userSpaceOnUse">
<stop stop-color="#A1C5C1"/>
<stop offset="1" stop-color="#004F46" stop-opacity="0.8"/>
</linearGradient>
</defs>
</svg>
