<svg width="24" height="25" viewBox="0 0 24 25" fill="none" xmlns="http://www.w3.org/2000/svg">
<path fill-rule="evenodd" clip-rule="evenodd" d="M20 3.36761H4C2.34806 3.36761 1.01 4.71496 1.01 6.36761L1 18.3668C1 20.0199 2.34772 21.3676 4 21.3676H20C21.6523 21.3676 23 20.0199 23 18.3676V6.36761C23 4.71533 21.6523 3.36761 20 3.36761ZM5.48406 9.36776C5.01101 9.08274 4.85859 8.46819 5.14361 7.99514C5.42864 7.52209 6.04318 7.36966 6.51623 7.65469L11.9707 10.9411L17.6632 7.51123C18.1363 7.2262 18.7517 7.38 19.0367 7.85306C19.3211 8.32503 19.1709 8.93949 18.6998 9.22539L12.01 13.2856L12.0037 13.296L5.48406 9.36776Z" fill="#979797"/>
<mask id="mask0_421_628" style="mask-type:luminance" maskUnits="userSpaceOnUse" x="1" y="3" width="22" height="19">
<path fill-rule="evenodd" clip-rule="evenodd" d="M20 3.36761H4C2.34806 3.36761 1.01 4.71496 1.01 6.36761L1 18.3668C1 20.0199 2.34772 21.3676 4 21.3676H20C21.6523 21.3676 23 20.0199 23 18.3676V6.36761C23 4.71533 21.6523 3.36761 20 3.36761ZM5.48406 9.36776C5.01101 9.08274 4.85859 8.46819 5.14361 7.99514C5.42864 7.52209 6.04318 7.36966 6.51623 7.65469L11.9707 10.9411L17.6632 7.51123C18.1363 7.2262 18.7517 7.38 19.0367 7.85306C19.3211 8.32503 19.1709 8.93949 18.6998 9.22539L12.01 13.2856L12.0037 13.296L5.48406 9.36776Z" fill="white"/>
</mask>
<g mask="url(#mask0_421_628)">
<rect y="0.367615" width="24" height="24" fill="#E1824A"/>
</g>
</svg>
