<svg width="24" height="25" viewBox="0 0 24 25" fill="none" xmlns="http://www.w3.org/2000/svg">
<path fill-rule="evenodd" clip-rule="evenodd" d="M6.62 10.88C8.06 13.71 10.38 16.02 13.21 17.47L15.41 15.27C15.68 15 16.08 14.91 16.43 15.03C17.55 15.4 18.76 15.6 20 15.6C20.55 15.6 21 16.05 21 16.6V20.09C21 20.64 20.55 21.09 20 21.09C10.61 21.09 3 13.48 3 4.08997C3 3.53997 3.45 3.08997 4 3.08997H7.5C8.05 3.08997 8.5 3.53997 8.5 4.08997C8.5 5.33997 8.7 6.53997 9.07 7.65997C9.18 8.00997 9.1 8.39997 8.82 8.67997L6.62 10.88Z" fill="#C2D1D9"/>
<mask id="mask0_421_1115" style="mask-type:luminance" maskUnits="userSpaceOnUse" x="3" y="3" width="18" height="19">
<path fill-rule="evenodd" clip-rule="evenodd" d="M6.62 10.88C8.06 13.71 10.38 16.02 13.21 17.47L15.41 15.27C15.68 15 16.08 14.91 16.43 15.03C17.55 15.4 18.76 15.6 20 15.6C20.55 15.6 21 16.05 21 16.6V20.09C21 20.64 20.55 21.09 20 21.09C10.61 21.09 3 13.48 3 4.08997C3 3.53997 3.45 3.08997 4 3.08997H7.5C8.05 3.08997 8.5 3.53997 8.5 4.08997C8.5 5.33997 8.7 6.53997 9.07 7.65997C9.18 8.00997 9.1 8.39997 8.82 8.67997L6.62 10.88Z" fill="white"/>
</mask>
<g mask="url(#mask0_421_1115)">
<rect y="0.0899658" width="24" height="24" fill="#E1824A"/>
</g>
</svg>
