<svg width="53" height="45" viewBox="0 0 53 45" fill="none" xmlns="http://www.w3.org/2000/svg">
<path fill-rule="evenodd" clip-rule="evenodd" d="M38.8337 14.8343C39.2363 14.1678 38.7564 13.3172 37.9778 13.3172H33.1252L28.7085 20.6284V30.5952C28.7085 31.1475 29.1562 31.5952 29.7085 31.5952H40.9585C41.5108 31.5952 41.9585 31.1475 41.9585 30.5952V21.6284C41.9585 21.0761 41.5108 20.6284 40.9585 20.6284H35.3335L38.8337 14.8343ZM21.167 14.8343C21.5697 14.1678 21.0897 13.3172 20.3111 13.3172H15.4585L11.0418 20.6284V30.5952C11.0418 31.1475 11.4895 31.5952 12.0418 31.5952H23.2918C23.8441 31.5952 24.2918 31.1475 24.2918 30.5952V21.6284C24.2918 21.0761 23.8441 20.6284 23.2918 20.6284H17.6668L21.167 14.8343Z" fill="black" fill-opacity="0.7"/>
<mask id="mask0_286_379" style="mask-type:luminance" maskUnits="userSpaceOnUse" x="11" y="13" width="31" height="19">
<path fill-rule="evenodd" clip-rule="evenodd" d="M38.8337 14.8343C39.2363 14.1678 38.7564 13.3172 37.9778 13.3172H33.1252L28.7085 20.6284V30.5952C28.7085 31.1475 29.1562 31.5952 29.7085 31.5952H40.9585C41.5108 31.5952 41.9585 31.1475 41.9585 30.5952V21.6284C41.9585 21.0761 41.5108 20.6284 40.9585 20.6284H35.3335L38.8337 14.8343ZM21.167 14.8343C21.5697 14.1678 21.0897 13.3172 20.3111 13.3172H15.4585L11.0418 20.6284V30.5952C11.0418 31.1475 11.4895 31.5952 12.0418 31.5952H23.2918C23.8441 31.5952 24.2918 31.1475 24.2918 30.5952V21.6284C24.2918 21.0761 23.8441 20.6284 23.2918 20.6284H17.6668L21.167 14.8343Z" fill="white"/>
</mask>
<g mask="url(#mask0_286_379)">
<rect y="0.522598" width="53" height="43.8672" fill="#E1824A"/>
</g>
</svg>
